<svg xmlns="http://www.w3.org/2000/svg" xmlns:xlink="http://www.w3.org/1999/xlink" version="1.1" x="0px" y="0px" viewBox="0 0 1000 1000" enable-background="new 0 0 1000 1000" xml:space="preserve">
  <g>
    <path d="M278.3,191.5c-12.2,0-22,9.9-22,22c0,12.1,9.8,21.9,22,21.9h541.4l-49.3,308.9c-0.2,1.2-0.3,2.3-0.3,3.4H770c0,0.1,0,37-36.9,42.7L242,602l-65.4-406.6c-5.6-34.8-21.1-64.1-48.2-83.4c-24-17-56.4-25.6-98.1-22.3c-12.1,1-21.2,11.6-20.2,23.6c1,12.1,11.6,21.1,23.7,20.1c30.8-2.4,53.4,3.1,69.2,14.2c16.8,12,26.6,31.2,30.3,54.6l68.4,425.3l0.1,0.6l13.6,84.3c0.9,11.3,10.4,20.3,22,20.3h511.1c12.2,0,22-9.8,22-21.9c0-12.1-9.9-22-22-22H255.9l-6.9-43.2l485.6-11.4c1.3,0.1,2.6,0,4-0.2c69.2-9.8,75-73.9,75.5-84.7l52.8-330.6c0.4-1.7,0.6-3.4,0.6-5.2c0-12.1-9.9-22-22-22L278.3,191.5L278.3,191.5z M277.3,780.9c-21.3,0-40.5,8.7-54.4,22.5c-14,13.9-22.6,33.2-22.6,54.3c0,21.1,8.6,40.4,22.6,54.3v0.1h0.1l0.2,0.2c14,13.8,33.1,22.4,54.2,22.4c21.2,0,40.5-8.6,54.4-22.5c13.9-13.9,22.6-33.1,22.6-54.3c0-21.1-8.7-40.4-22.6-54.2l-0.1-0.1C317.7,789.5,298.5,780.9,277.3,780.9L277.3,780.9z M254,834.4c5.9-5.9,14.2-9.6,23.3-9.6s17.4,3.7,23.3,9.6l0.1,0.1c5.9,6,9.6,14.2,9.6,23.3c0,9.1-3.7,17.4-9.7,23.3c-6,6-14.3,9.6-23.3,9.6c-9.2,0-17.4-3.7-23.3-9.5l-0.1-0.1c-5.9-5.9-9.5-14.1-9.5-23.3C244.3,848.7,248,840.4,254,834.4L254,834.4z M681.1,780.9c-21.3,0-40.5,8.7-54.4,22.5c-14,13.9-22.6,33.2-22.6,54.3c0,21.1,8.6,40.4,22.6,54.3v0.1h0.1l0.2,0.2c14,13.8,33.1,22.4,54.2,22.4c21.2,0,40.5-8.6,54.4-22.5c13.9-13.9,22.6-33.1,22.6-54.3c0-21.1-8.7-40.4-22.6-54.2l-0.1-0.1C721.5,789.5,702.3,780.9,681.1,780.9L681.1,780.9z M657.8,834.4c5.9-5.9,14.2-9.6,23.3-9.6c9.1,0,17.4,3.7,23.3,9.6l0.1,0.1c5.9,6,9.6,14.2,9.6,23.3c0,9.1-3.7,17.4-9.7,23.3c-6,6-14.3,9.6-23.3,9.6c-9.2,0-17.4-3.7-23.3-9.5l-0.1-0.1c-5.9-5.9-9.5-14.1-9.5-23.3C648.1,848.7,651.8,840.4,657.8,834.4L657.8,834.4z"/>
  </g>
</svg>